<svg width="16" height="16" viewBox="0 0 16 16" fill="none" xmlns="http://www.w3.org/2000/svg">
<g clip-path="url(#clip0_271_160)">
<path d="M15.854 12.8539L11 7.9999L15.854 3.1459C15.947 3.05176 15.9992 2.92475 15.9992 2.7924C15.9992 2.66006 15.947 2.53305 15.854 2.4389L13.561 0.145905C13.4673 0.0521694 13.3401 -0.000488281 13.2075 -0.000488281C13.0749 -0.000488281 12.9478 0.0521694 12.854 0.145905L8.00003 4.99991L3.14603 0.145905C3.05226 0.0521694 2.92511 -0.000488281 2.79253 -0.000488281C2.65994 -0.000488281 2.53279 0.0521694 2.43903 0.145905L0.146027 2.4389C0.0522915 2.53267 -0.000366211 2.65982 -0.000366211 2.7924C-0.000366211 2.92499 0.0522915 3.05214 0.146027 3.1459L5.00003 7.9999L0.146027 12.8539C0.0522915 12.9477 -0.000366211 13.0748 -0.000366211 13.2074C-0.000366211 13.34 0.0522915 13.4671 0.146027 13.5609L2.43903 15.8539C2.53279 15.9476 2.65994 16.0003 2.79253 16.0003C2.92511 16.0003 3.05226 15.9476 3.14603 15.8539L8.00003 10.9999L12.854 15.8539C12.9478 15.9476 13.0749 16.0003 13.2075 16.0003C13.3401 16.0003 13.4673 15.9476 13.561 15.8539L15.854 13.5609C15.9478 13.4671 16.0004 13.34 16.0004 13.2074C16.0004 13.0748 15.9478 12.9477 15.854 12.8539Z" fill="black"/>
</g>
<defs>
<clipPath id="clip0_271_160">
<rect width="16" height="16" fill="white"/>
</clipPath>
</defs>
</svg>
